<?xml version="1.0" encoding="UTF-8"?>
<svg width="161px" height="164px" viewBox="0 0 161 164" version="1.1" xmlns="http://www.w3.org/2000/svg" xmlns:xlink="http://www.w3.org/1999/xlink">
    <title>Combined Shape</title>
    <g id="Page-1" stroke="none" stroke-width="1" fill="none" fill-rule="evenodd">
        <g id="LOLEV-NEW--WonUP2" transform="translate(-388.000000, -351.000000)" fill="#000000">
            <path d="M427.156,350.752 L427.891,357.105 C429.068,359.168 429.757,360.805 429.766,362.16 C429.795,362.118 429.821,362.082 429.852,362.039 C430.548667,361.058167 430.826035,360.760479 431.414306,359.978231 L431.583,359.752 L433.57,357.624 C432.79,358.744 431.99,359.924 431.16,361.184 C430.229139,362.594184 429.269325,364.091231 428.293965,365.675141 C428.771427,365.219845 429.333451,364.824433 429.984672,364.573025 C431.885999,363.838414 434.047209,364.524954 435.19855,365.01611 C436.602671,363.949633 437.388241,362.019763 436.368279,358.576818 C436.368279,358.576818 439.202211,363.172726 435.764291,366.078694 C435.287146,367.173531 434.129969,369.320947 432.117681,370.097719 C429.582269,371.076529 426.581438,369.530715 426.134775,369.287105 L426.02,369.484 C426,369.494 426,369.494 426.01,369.504 C425.66,370.084 425.33,370.684 424.99,371.284 C424.98,371.284 424.98,371.304 424.97,371.314 C424.793,371.627 424.617,371.953 424.44,372.271 C424.383,372.516 424.313,372.763 424.229,373.014 C424.883,372.603 425.609,372.275 426.407,372.124 C428.825,371.668 431.238,372.908 432.557,373.765 C435.348127,373.439648 440.783173,371.98091 437.84316,365.456721 L437.712,365.174 L437.719307,365.182643 C437.954924,365.463498 443.73612,372.51646 432.815,375.675 C431.878,376.958 430.119,378.891 427.769,379.335 C425.337,379.794 422.909,378.537 421.596,377.68 C421.065,378.737 420.533,379.815 420.03,380.924 C419.51,382.037 419.006,383.179 418.513,384.339 C418.935,384.042 419.392,383.786 419.887,383.589 C422.07,382.719 424.511,383.169 426.239,383.735 C439.38749,383.639082 439.864361,374.501996 439.881384,373.756271 L439.881964,373.720236 L439.882,373.717 L439.907321,374.061005 C440.386329,382.573244 430.929074,385.440906 428.05247,386.114543 L427.938,386.141 C427.169,387.795 425.601,390.41 423.017,391.44 C420.503,392.442 417.653,391.693 415.939,391.033 C415.572,392.098 415.214,393.174 414.88,394.274 C414.55,395.354 414.24,396.454 413.96,397.564 L413.95875,397.569 L413.95,397.574 L413.83,398.054 C413.756,398.34 413.698,398.634 413.627,398.922 C413.913,398.595 414.216,398.279 414.559,397.994 C417.784333,395.317286 422.66589,395.633781 424.509585,395.870841 L424.639,395.888 L436.975,385.464 L425.167,397.51 C424.946,399.707 424.156,403.763 421.308,406.126 C418.412,408.53 414.189,408.519 412.02,408.321 C411.944,409.096 411.878,409.877 411.84,410.654 C411.724444,412.805111 411.751111,414.972025 411.94107,417.112601 L412.02,417.914 L412.02,417.944 C412.034,418.044 412.046,418.14 412.058,418.24 C412.062,418.264 412.064,418.288 412.068,418.313 C412.078,418.396 412.088,418.483 412.1,418.564 C412.11,418.684 412.12,418.804 412.14,418.934 C412.25,419.874 412.4,420.794 412.6,421.714 C412.59,421.724 412.59,421.724 412.6,421.734 C412.602,421.744 412.605,421.754 412.607,421.764 C413.610074,415.740648 418.18316,412.067763 425.854469,408.576443 L426.292,408.379 L435.84,393.089 L427.506,409.774 C426.803,421.833 422.978,429.556 415.112,429.825 C415.115,429.832 415.117,429.838 415.12,429.844 C416.065,431.968 417.1963,433.9543 418.47016,435.81019 L418.9,436.424 L418.92,436.444 C418.922,436.448 418.925,436.45 418.927,436.454 C419.749,437.091 420.486,437.815 421.133,438.645 C423.481,431.663 429.922,427.343 429.922,427.343 C423.192,432.577 423.581,441.819 426.122,446.178 C426.763,447.277 428.036,448.037 429.19,448.954 C430.54,450.034 432.05,451.104 433.63,452.114 C433.63,452.114 433.641,452.114 433.641,452.124 C436.15,453.774 438.83,455.314 441.3,456.614 C441.3,456.624 441.311,456.624 441.311,456.624 C442.351,457.194 443.328,457.762 444.29,458.194 C448.679,460.163 451.683,461.424 454.46,463.424 C456.782,465.096 458.49,467.664 459.91,470.584 L459.91875,470.589 L459.92,470.594 L459.92,470.604 C460.04,470.864 460.17,471.124 460.29,471.394 C460.695,472.282 461.06,473.214 461.402,474.169 C461.677,474.935 461.94,475.713 462.18,476.514 C462.58,477.854 462.939,479.254 463.24,480.674 L463.243375,480.7325 L463.243375,480.7325 L463.249,480.794 L463.27,480.794 C463.49,481.804 463.689,482.824 463.859,483.854 C465.85925,495.686187 465.182169,508.613338 464.778981,513.850461 L464.76,514.094 L460.767,514.094 C460.767,514.094 461.009,508.749 461.009,499.553 C461.009,492.537 460.283,486.61 460.283,486.61 C452.766699,492.842258 445.050761,488.634702 434.893097,479.125941 L434.561,478.814 L414.16,476.583 L434.49,475.865 C442.57,470.904 449.04,468.224 454.5,468.984 C454.46,468.944 454.39,468.93 454.36,468.874 C453.833,467.876 453.055,466.764 450.014,464.687 C448.894,463.923 446.046005,462.864 446.285005,463.424 C437.603695,474.9377 426.239846,472.288955 415.233416,459.873219 L414.9,459.494 L395.641,455.124 L415.061,456.684 C420.63,454.034 425.391,452.334 429.49,451.974 C429.092816,451.676289 428.638584,451.30431 428.177244,450.92081 L427.869179,450.664124 C426.483082,449.507556 425.132895,448.372789 425.167,448.954 C413.7424,455.0623 407.282987,448.909549 402.281129,434.897994 L402.13,434.471 L388.461,423.374 L403.043,432.36 C407.214,432.513 410.77,432.947 413.728,433.86 C412.909,432.16 412.18,430.392 411.6,428.544 C411.39,427.894 411.232287,427.129 411.157287,427.343 C401.927837,426.947396 398.093541,418.321698 398.711745,405.468016 L398.734,405.038 L391.907,390.473 L400.096,403.852 C404.298,406.558 407.474,409.146 409.519,412.004 C409.52,411.994 409.52,411.984 409.52,411.974 C409.54,411.464 409.58,410.954 409.62,410.444 C409.738,408.995 409.914,407.576 410.127,406.166 C403.537141,402.876986 402.947619,396.791443 405.00904,386.513073 L405.099,386.07 L401.977,369.639 L406.444,385.734 C409.555,388.67 411.771,391.725 412.855,394.825 C412.925,394.606 412.988,394.381 413.06,394.164 C413.13,393.954 413.2,393.744 413.27,393.534 C413.635,392.451 414.022,391.394 414.419,390.348 C414.405,390.341 414.386,390.33 414.386,390.33 L414.386643,390.327939 L414.427578,390.204219 C414.51125,389.959625 414.72275,389.3795 415.076,388.652 C415.095,388.607 415.111,388.559 415.131,388.51 C409.90018,386.573279 408.765679,380.887565 410.499904,373.248569 L410.589,372.865 L407.227,360.135 L411.577,372.335 C415.411,376.227 417.569,379.481 417.484,383.089 C417.561,382.926 417.633,382.756 417.71,382.594 C418.62,380.654 419.57,378.784 420.54,376.994 C420.991,376.155 421.444,375.334 421.898,374.527 C418.736723,372.751596 418.109091,368.691601 419.302589,363.39235 L419.383,363.045 L416.823,353.355 L420.134,362.642 C422.741,365.287 424.326,367.546 424.591,369.955 C425.168,369.015 425.744,368.095 426.31,367.204 C426.893,366.293 427.341,365.615 427.754,365.008 C425.278154,362.89559 425.365621,360.176529 427.168148,357.317033 L427.314,357.091 L427.156,350.752 Z M509.766,350.752 L509.608,357.091 L509.753852,357.317033 C511.556379,360.176529 511.643846,362.89559 509.168,365.008 C509.581,365.615 510.029,366.293 510.612,367.204 C511.178,368.095 511.754,369.015 512.331,369.955 C512.596,367.546 514.181,365.287 516.788,362.642 L516.788,362.642 L520.099,353.355 L517.539,363.045 L517.619411,363.39235 C518.812909,368.691601 518.185277,372.751596 515.024,374.527 C515.478,375.334 515.931,376.155 516.382,376.994 C517.352,378.784 518.302,380.654 519.212,382.594 C519.289,382.756 519.361,382.926 519.438,383.089 C519.353,379.481 521.511,376.227 525.345,372.335 L525.345,372.335 L529.695,360.135 L526.333,372.865 L526.422096,373.248569 C528.156321,380.887565 527.02182,386.573279 521.791,388.51 C521.811,388.559 521.827,388.607 521.846,388.652 C522.19925,389.3795 522.41075,389.959625 522.494422,390.204219 L522.494422,390.204219 L522.536,390.33 C522.536,390.33 522.517,390.341 522.503,390.348 C522.9,391.394 523.287,392.451 523.652,393.534 L523.652,393.534 L523.862,394.164 C523.934,394.381 523.997,394.606 524.067,394.825 C525.151,391.725 527.367,388.67 530.478,385.734 L530.478,385.734 L534.945,369.639 L531.823,386.07 L531.91296,386.513073 C533.974381,396.791443 533.384859,402.876986 526.795,406.166 C527.008,407.576 527.184,408.995 527.302,410.444 C527.342,410.954 527.382,411.464 527.402,411.974 C527.402,411.984 527.402,411.994 527.403,412.004 C529.448,409.146 532.624,406.558 536.826,403.852 L536.826,403.852 L545.015,390.473 L538.188,405.038 L538.210255,405.468016 C538.828459,418.321698 534.994163,426.947396 525.764713,427.343 C525.689713,427.129 525.532,427.894 525.322,428.544 C524.742,430.392 524.013,432.16 523.194,433.86 C526.152,432.947 529.708,432.513 533.879,432.36 L533.879,432.36 L548.461,423.374 L534.792,434.471 L534.640871,434.897994 C529.639013,448.909549 523.1796,455.0623 511.755,448.954 C511.789105,448.372789 510.438918,449.507556 509.052821,450.664124 L509.052821,450.664124 L508.744756,450.92081 C508.283416,451.30431 507.829184,451.676289 507.432,451.974 C511.531,452.334 516.292,454.034 521.861,456.684 L521.861,456.684 L541.281,455.124 L522.022,459.494 L521.688584,459.873219 C510.682154,472.288955 499.318305,474.9377 490.636995,463.424 C490.875995,462.864 488.028,463.923 486.908,464.687 C483.867,466.764 483.089,467.876 482.562,468.874 C482.532,468.93 482.462,468.944 482.422,468.984 C487.882,468.224 494.352,470.904 502.432,475.865 L502.432,475.865 L522.762,476.583 L502.361,478.814 L502.028903,479.125941 C491.871239,488.634702 484.155301,492.842258 476.639,486.61 C476.639,486.61 475.913,492.537 475.913,499.553 L475.913789,500.459708 C475.928864,509.099394 476.155,514.094 476.155,514.094 L476.155,514.094 L472.162,514.094 L472.143019,513.850461 C471.739831,508.613338 471.06275,495.686187 473.063,483.854 C473.233,482.824 473.432,481.804 473.652,480.794 L473.652,480.794 L473.673,480.794 L473.678625,480.7325 L473.678625,480.7325 L473.682,480.674 C473.983,479.254 474.342,477.854 474.742,476.514 C474.982,475.713 475.245,474.935 475.52,474.169 C475.862,473.214 476.227,472.282 476.632,471.394 C476.752,471.124 476.882,470.864 477.002,470.604 L477.002,470.604 L477.002,470.594 L477.00325,470.589 C478.432,467.664 480.14,465.096 482.462,463.424 C485.239,461.424 488.243,460.163 492.632,458.194 C493.594,457.762 494.571,457.194 495.611,456.624 C495.611,456.624 495.622,456.624 495.622,456.614 C498.092,455.314 500.772,453.774 503.281,452.124 C503.281,452.114 503.292,452.114 503.292,452.114 C504.872,451.104 506.382,450.034 507.732,448.954 C508.886,448.037 510.159,447.277 510.8,446.178 C513.341,441.819 513.73,432.577 507,427.343 C507,427.343 513.441,431.663 515.789,438.645 C516.436,437.815 517.173,437.091 517.995,436.454 L517.995,436.454 L518.002,436.444 L518.022,436.424 L518.45184,435.81019 C519.7257,433.9543 520.857,431.968 521.802,429.844 C521.805,429.838 521.807,429.832 521.81,429.825 C513.944,429.556 510.119,421.833 509.416,409.774 L509.416,409.774 L501.082,393.089 L510.63,408.379 L511.067531,408.576443 C518.73884,412.067763 523.311926,415.740648 524.315,421.764 L524.315,421.764 L524.322,421.734 C524.332,421.724 524.332,421.724 524.322,421.714 C524.522,420.794 524.672,419.874 524.782,418.934 C524.802,418.804 524.812,418.684 524.822,418.564 C524.834,418.483 524.844,418.396 524.854,418.313 C524.858,418.288 524.86,418.264 524.864,418.24 C524.876,418.14 524.888,418.044 524.902,417.944 L524.902,417.944 L524.902,417.914 L524.98093,417.112601 C525.170889,414.972025 525.197556,412.805111 525.082,410.654 C525.044,409.877 524.978,409.096 524.902,408.321 C522.733,408.519 518.51,408.53 515.614,406.126 C512.766,403.763 511.976,399.707 511.755,397.51 L511.755,397.51 L499.947,385.464 L512.283,395.888 L512.412415,395.870841 C514.25611,395.633781 519.137667,395.317286 522.363,397.994 C522.706,398.279 523.009,398.595 523.295,398.922 C523.224,398.634 523.166,398.34 523.092,398.054 L523.092,398.054 L522.972,397.574 L522.96325,397.569 L522.96325,397.569 C522.682,396.454 522.372,395.354 522.042,394.274 C521.708,393.174 521.35,392.098 520.983,391.033 C519.269,391.693 516.419,392.442 513.905,391.44 C511.321,390.41 509.753,387.795 508.984,386.141 L508.984,386.141 L508.86953,386.114543 C505.992926,385.440906 496.535671,382.573244 497.014679,374.061005 L497.014679,374.061005 L497.04,373.717 L497.040616,373.756271 C497.057458,374.494063 497.524416,383.445625 510.267655,383.72889 L510.683,383.735 C512.411,383.169 514.852,382.719 517.035,383.589 C517.53,383.786 517.987,384.042 518.409,384.339 C517.916,383.179 517.412,382.037 516.892,380.924 C516.389,379.815 515.857,378.737 515.326,377.68 C514.013,378.537 511.585,379.794 509.153,379.335 C506.803,378.891 505.044,376.958 504.107,375.675 C493.18588,372.51646 498.967076,365.463498 499.202693,365.182643 L499.202693,365.182643 L499.21,365.174 L499.07884,365.456721 C496.138827,371.98091 501.573873,373.439648 504.365,373.765 C505.684,372.908 508.097,371.668 510.515,372.124 C511.313,372.275 512.039,372.603 512.693,373.014 C512.609,372.763 512.539,372.516 512.482,372.271 C512.305,371.953 512.129,371.627 511.952,371.314 C511.942,371.304 511.942,371.284 511.932,371.284 C511.592,370.684 511.262,370.084 510.912,369.504 C510.922,369.494 510.922,369.494 510.902,369.484 L510.902,369.484 L510.787225,369.287105 C510.340562,369.530715 507.339731,371.076529 504.804319,370.097719 C502.792031,369.320947 501.634854,367.173531 501.157709,366.078694 C497.719789,363.172726 500.553721,358.576818 500.553721,358.576818 C499.533759,362.019763 500.319329,363.949633 501.72345,365.01611 C502.874791,364.524954 505.036001,363.838414 506.937328,364.573025 C507.588549,364.824433 508.150573,365.219845 508.628035,365.675141 C507.652675,364.091231 506.692861,362.594184 505.762,361.184 C504.932,359.924 504.132,358.744 503.352,357.624 L503.352,357.624 L505.339,359.752 L505.507694,359.978231 C506.095965,360.760479 506.373333,361.058167 507.07,362.039 C507.101,362.082 507.127,362.118 507.156,362.16 C507.165,360.805 507.854,359.168 509.031,357.105 L509.031,357.105 L509.766,350.752 Z" id="Combined-Shape"></path>
        </g>
    </g>
</svg>